<svg xmlns="http://www.w3.org/2000/svg" version="1.1" xmlns:xlink="http://www.w3.org/1999/xlink" xmlns:svgjs="http://svgjs.dev/svgjs" width="2000" height="1500" viewBox="0 0 2000 1500"><rect width="2000" height="1500" fill="#000000"></rect><g transform="matrix(0.75,0,0,0.75,249.7108965657825,41.07555479898497)"><svg viewBox="0 0 261 247" data-background-color="#000000" preserveAspectRatio="xMidYMid meet" height="1892" width="2000" xmlns="http://www.w3.org/2000/svg" xmlns:xlink="http://www.w3.org/1999/xlink"><g id="tight-bounds" transform="matrix(1,0,0,1,0.05030399755383996,-0.09997365579205564)"><svg viewBox="0 0 260.8993066666667 247.19999999999996" height="247.19999999999996" width="260.8993066666667"><g><svg viewBox="0 0 260.8993066666667 247.19999999999996" height="247.19999999999996" width="260.8993066666667"><g><svg viewBox="0 0 260.8993066666667 247.19999999999996" height="247.19999999999996" width="260.8993066666667"><g id="textblocktransform"><svg viewBox="0 0 260.8993066666667 247.19999999999996" height="247.19999999999996" width="260.8993066666667" id="textblock"><g><svg viewBox="0 0 260.8993066666667 247.19999999999996" height="247.19999999999996" width="260.8993066666667"><path d="M260.288 53.02C259.062 27.36 255.566 20.227 255.566 20.227 244.834-6.202 231.44-0.506 219.408 3.292 198.164 3.446 177.006 9.091 155.812 12.119 111.325 12.581 66.458 4.986 22.192 23.717 18.034 29.464-4.314 24.846 0.74 56.304 2.064 69.39 6.897 83.913 6.75 95.922 7.412 98.026 8.332 93.202 8.724 96.23 10.098 104.39 12.343 100.541 14.183 105.365 11.619 118.246 13.459 128.971 15.213 140.21 12.122 143.135 8.16 141.749 6.382 151.449 6.198 158.479 5.204 157.145 4.113 156.837 3.315 156.632 1.709 157.402 1.978 159.608 2.898 167.152-1.051 171.514 1.426 178.904-0.278 186.91 2.604 193.838 2.211 202.511 2.162 204.255 2.432 205.744 2.862 206.154 4.763 208.361 1.991 212.672 2.285 217.342 21.787 249.262 42.945 227.195 62.925 241.872 68.114 231.608 64.213 245.516 66.286 243.36 67.905 240.846 69.083 251.263 70.91 245.362 71.192 243.668 70.763 239.665 71.769 240.435 72.296 240.846 72.762 240.743 72.836 238.382 72.946 234.841 71.977 237.048 71.72 235.201 74.504 225.861 73.817 248.081 76.43 247.158 76.307 244.438 75.546 240.538 77.104 241.051 78.65 237.151 78.699 233.918 80.072 242.693 80.121 244.592 80.367 245.926 80.759 246.85 85.052 237.305 89.321 250.237 93.822 245.926 96.582 241.205 99.231 248.492 102.028 246.696 103.009 245.259 104.002 242.693 104.947 247.004 116.513 247.928 128.84 244.079 139.805 247.158 169.107 241.41 200.421 249.518 231.318 241.923 238.603 238.998 246.171 234.841 253.273 231.506 253.273 231.506 259.025 222.371 259.025 181.316S260.252 145.393 260.436 112.703C260.62 80.013 261.478 78.679 260.252 53.02Z" opacity="1" fill="#ffffff" data-fill-palette-color="tertiary"></path><g transform="matrix(1,0,0,1,55.76832000000002,26.230666666666668)"><svg width="149.36266666666666" viewBox="3.45 -35.55 27.650000000000002 36.05" height="194.73866666666663" data-palette-color="#000000"><path d="M29.05-8.25L30.85-2.3Q31-1.8 31-1.55L31-1.55Q31-0.55 30.2-0.03 29.4 0.5 28.2 0.5L28.2 0.5Q27.35 0.5 26.7 0.13 26.05-0.25 25.85-0.9L25.85-0.9Q24.65-4.95 23.75-8.25L23.75-8.25 10.85-8.3 8.65-1.1Q8.2 0.45 6.25 0.45L6.25 0.45Q5.15 0.45 4.3-0.13 3.45-0.7 3.45-1.6L3.45-1.6Q3.45-1.9 3.6-2.35L3.6-2.35Q8.6-17.3 11.25-25.35L11.25-25.35 12.65-29.7Q13.75-32.9 14.85-34.23 15.95-35.55 17.7-35.55L17.7-35.55Q19.35-35.55 20.38-34.35 21.4-33.15 22.35-30.2L22.35-30.2Q24.75-22.65 27.65-12.95L27.65-12.95 29.05-12.95Q30.05-12.95 30.58-12.33 31.1-11.7 31.1-10.6L31.1-10.6Q31.1-8.25 29.45-8.25L29.45-8.25 29.05-8.25ZM12.35-13.1L22.4-13 22.1-14.15Q20.15-21.05 19-24.85L19-24.85Q18.85-25.3 18.5-26.5 18.15-27.7 17.93-28.2 17.7-28.7 17.5-28.7L17.5-28.7Q17.25-28.7 17.03-28.13 16.8-27.55 16.4-26.1L16.4-26.1Q16.35-25.85 16.25-25.6 16.15-25.35 16.05-25L16.05-25Q15.85-24.3 15.7-23.95L15.7-23.95Q15.15-22.2 14.35-19.63 13.55-17.05 12.35-13.1L12.35-13.1Z" opacity="1" transform="matrix(1,0,0,1,0,0)" fill="#000000" class="wordmark-text-0" data-fill-palette-color="quaternary" id="text-0"></path></svg></g></svg></g></svg></g></svg></g><g></g></svg></g><defs></defs></svg><rect width="260.8993066666667" height="247.19999999999996" fill="none" stroke="none" visibility="hidden"></rect></g></svg></g></svg>